<svg width="1053" height="444" viewBox="0 0 1053 444" fill="none" xmlns="http://www.w3.org/2000/svg">
<g clip-path="url(#clip0_202_2)">
<path d="M331 337.358L284.234 337.481L236.976 256.008L217.328 222.16H253.618C263.025 222.168 272.053 218.467 278.727 211.865C282.086 208.526 284.738 204.548 286.524 200.169C288.31 195.79 289.195 191.098 289.127 186.372C288.866 166.913 272.438 151.486 252.913 151.486H186.958C183.333 151.482 179.768 150.563 176.595 148.816C173.422 147.07 170.745 144.552 168.813 141.496L155.561 120.372L148.935 109.894H255.658C296.228 109.894 329.926 142.245 330.095 182.645C330.155 192.288 328.287 201.845 324.601 210.761C320.914 219.677 315.482 227.774 308.621 234.578C300.92 242.227 291.619 248.089 281.381 251.746L331 337.358Z" fill="white"/>
<path d="M190.854 256.008H145.207L123.688 213.362L116.157 198.393L45.6927 337.908L0 338L93.2874 153.151L116.111 108L123.688 122.969L138.98 153.242L152.969 180.965L173.752 222.16L190.854 256.008Z" fill="white"/>
<path d="M95.6955 259.674L184.075 337.313L231.286 336.213L210.978 297.951L95.6955 259.674Z" fill="white"/>
</g>
<line x1="357.5" y1="338" x2="357.5" y2="106" stroke="white" stroke-width="3"/>
<path d="M450.736 166.528L435.732 131.808L420.852 166.528H450.736ZM428.912 113.58H443.048L481.24 201H465.12L456.316 180.044H415.272L406.344 201H390.72L428.912 113.58ZM491.909 135.528H506.913V145.696C507.988 144.125 509.145 142.679 510.385 141.356C511.708 139.951 513.196 138.711 514.849 137.636C516.585 136.561 518.445 135.735 520.429 135.156C522.496 134.495 524.81 134.164 527.373 134.164C534.813 134.164 540.558 136.437 544.609 140.984C548.66 145.531 550.685 151.648 550.685 159.336V201H535.681V163.8C535.681 158.675 534.441 154.748 531.961 152.02C529.564 149.209 526.133 147.804 521.669 147.804C517.288 147.804 513.733 149.251 511.005 152.144C508.277 154.955 506.913 158.923 506.913 164.048V201H491.909V135.528ZM600.051 189.344C602.614 189.344 605.011 188.848 607.243 187.856C609.558 186.864 611.542 185.5 613.195 183.764C614.931 181.945 616.295 179.755 617.287 177.192C618.279 174.547 618.775 171.612 618.775 168.388V168.14C618.775 164.999 618.279 162.147 617.287 159.584C616.295 156.939 614.931 154.707 613.195 152.888C611.542 151.069 609.558 149.664 607.243 148.672C605.011 147.68 602.614 147.184 600.051 147.184C597.489 147.184 595.05 147.68 592.735 148.672C590.421 149.664 588.395 151.111 586.659 153.012C584.923 154.831 583.518 157.021 582.443 159.584C581.451 162.147 580.955 164.999 580.955 168.14V168.388C580.955 171.529 581.451 174.423 582.443 177.068C583.518 179.631 584.923 181.821 586.659 183.64C588.395 185.459 590.421 186.864 592.735 187.856C595.05 188.848 597.489 189.344 600.051 189.344ZM603.523 202.364C598.15 202.364 593.686 201.207 590.131 198.892C586.577 196.577 583.642 193.891 581.327 190.832V201H566.323V110.48H581.327V146.44C583.725 142.968 586.701 140.075 590.255 137.76C593.81 135.363 598.233 134.164 603.523 134.164C607.409 134.164 611.17 134.908 614.807 136.396C618.445 137.884 621.669 140.075 624.479 142.968C627.373 145.861 629.687 149.416 631.423 153.632C633.159 157.848 634.027 162.684 634.027 168.14V168.388C634.027 173.844 633.159 178.68 631.423 182.896C629.77 187.112 627.497 190.667 624.603 193.56C621.793 196.453 618.527 198.644 614.807 200.132C611.17 201.62 607.409 202.364 603.523 202.364ZM669.482 202.364C662.042 202.364 656.296 200.091 652.246 195.544C648.195 190.997 646.17 184.88 646.17 177.192V135.528H661.174V172.728C661.174 177.853 662.372 181.821 664.77 184.632C667.25 187.36 670.722 188.724 675.186 188.724C679.567 188.724 683.122 187.319 685.85 184.508C688.578 181.615 689.942 177.605 689.942 172.48V135.528H704.946V201H689.942V190.832C687.792 193.973 685.106 196.701 681.882 199.016C678.658 201.248 674.524 202.364 669.482 202.364ZM435.732 281.228C441.188 281.228 445.528 279.947 448.752 277.384C451.976 274.739 453.588 271.184 453.588 266.72V266.472C453.588 261.76 452.017 258.205 448.876 255.808C445.735 253.328 441.312 252.088 435.608 252.088H413.412V281.228H435.732ZM398.16 238.2H436.848C442.304 238.2 447.14 238.985 451.356 240.556C455.572 242.044 459.085 244.152 461.896 246.88C464.211 249.277 465.988 252.047 467.228 255.188C468.468 258.329 469.088 261.801 469.088 265.604V265.852C469.088 269.407 468.551 272.631 467.476 275.524C466.484 278.335 465.079 280.856 463.26 283.088C461.441 285.237 459.251 287.097 456.688 288.668C454.208 290.156 451.439 291.313 448.38 292.14L471.816 325H453.836L432.508 294.744H432.26H413.412V325H398.16V238.2ZM523.977 297.596C522.076 296.852 519.803 296.232 517.157 295.736C514.595 295.24 511.867 294.992 508.973 294.992C504.261 294.992 500.583 295.901 497.937 297.72C495.292 299.539 493.969 302.019 493.969 305.16V305.408C493.969 308.549 495.168 310.947 497.565 312.6C500.045 314.253 503.063 315.08 506.617 315.08C509.097 315.08 511.371 314.749 513.437 314.088C515.587 313.427 517.447 312.517 519.017 311.36C520.588 310.12 521.787 308.673 522.613 307.02C523.523 305.284 523.977 303.383 523.977 301.316V297.596ZM523.605 325V316.94C521.373 319.585 518.521 321.817 515.049 323.636C511.577 325.455 507.361 326.364 502.401 326.364C499.26 326.364 496.284 325.909 493.473 325C490.663 324.173 488.183 322.933 486.033 321.28C483.967 319.544 482.272 317.436 480.949 314.956C479.709 312.393 479.089 309.459 479.089 306.152V305.904C479.089 302.267 479.751 299.125 481.073 296.48C482.396 293.752 484.215 291.52 486.529 289.784C488.927 287.965 491.737 286.643 494.961 285.816C498.268 284.907 501.823 284.452 505.625 284.452C509.593 284.452 512.941 284.7 515.669 285.196C518.48 285.692 521.167 286.353 523.729 287.18V285.94C523.729 281.393 522.324 277.921 519.513 275.524C516.785 273.127 512.817 271.928 507.609 271.928C503.889 271.928 500.583 272.3 497.689 273.044C494.796 273.788 491.861 274.78 488.885 276.02L484.793 263.992C488.431 262.339 492.151 261.016 495.953 260.024C499.756 259.032 504.344 258.536 509.717 258.536C519.472 258.536 526.705 260.975 531.417 265.852C536.129 270.647 538.485 277.425 538.485 286.188V325H523.605ZM584.231 307.144C586.793 307.144 589.232 306.731 591.547 305.904C593.944 304.995 596.011 303.755 597.747 302.184C599.483 300.531 600.847 298.629 601.839 296.48C602.913 294.248 603.451 291.809 603.451 289.164V288.916C603.451 286.188 602.913 283.749 601.839 281.6C600.847 279.368 599.483 277.467 597.747 275.896C596.011 274.243 593.944 273.003 591.547 272.176C589.232 271.267 586.793 270.812 584.231 270.812C581.585 270.812 579.147 271.267 576.915 272.176C574.683 273.003 572.699 274.201 570.963 275.772C569.309 277.343 567.987 279.244 566.995 281.476C566.085 283.625 565.631 286.064 565.631 288.792V289.04C565.631 291.768 566.127 294.248 567.119 296.48C568.111 298.629 569.433 300.531 571.087 302.184C572.74 303.755 574.683 304.995 576.915 305.904C579.229 306.731 581.668 307.144 584.231 307.144ZM582.991 345.088C572.079 345.088 562.324 342.484 553.727 337.276L559.307 325.992C562.779 328.141 566.416 329.836 570.219 331.076C574.021 332.316 578.155 332.936 582.619 332.936C589.315 332.936 594.44 331.241 597.995 327.852C601.549 324.463 603.327 319.461 603.327 312.848V307.764C600.599 311.319 597.416 314.212 593.779 316.444C590.141 318.676 585.636 319.792 580.263 319.792C576.377 319.792 572.657 319.089 569.103 317.684C565.548 316.279 562.365 314.295 559.555 311.732C556.827 309.087 554.636 305.863 552.983 302.06C551.329 298.257 550.503 293.959 550.503 289.164V288.916C550.503 284.121 551.329 279.823 552.983 276.02C554.636 272.135 556.827 268.911 559.555 266.348C562.365 263.703 565.548 261.677 569.103 260.272C572.74 258.867 576.46 258.164 580.263 258.164C585.801 258.164 590.348 259.28 593.903 261.512C597.54 263.661 600.64 266.265 603.203 269.324V259.528H618.207V311.608C618.207 322.52 615.437 330.745 609.899 336.284C606.923 339.26 603.161 341.451 598.615 342.856C594.151 344.344 588.943 345.088 582.991 345.088ZM634.441 234.48H649.445V269.696C650.52 268.125 651.677 266.679 652.917 265.356C654.24 263.951 655.728 262.711 657.381 261.636C659.117 260.561 660.977 259.735 662.961 259.156C665.028 258.495 667.342 258.164 669.905 258.164C677.345 258.164 683.09 260.437 687.141 264.984C691.192 269.531 693.217 275.648 693.217 283.336V325H678.213V287.8C678.213 282.675 676.973 278.748 674.493 276.02C672.096 273.209 668.665 271.804 664.201 271.804C659.82 271.804 656.265 273.251 653.537 276.144C650.809 278.955 649.445 282.923 649.445 288.048V325H634.441V234.48ZM749.28 297.596C747.378 296.852 745.105 296.232 742.46 295.736C739.897 295.24 737.169 294.992 734.276 294.992C729.564 294.992 725.885 295.901 723.24 297.72C720.594 299.539 719.272 302.019 719.272 305.16V305.408C719.272 308.549 720.47 310.947 722.868 312.6C725.348 314.253 728.365 315.08 731.92 315.08C734.4 315.08 736.673 314.749 738.74 314.088C740.889 313.427 742.749 312.517 744.32 311.36C745.89 310.12 747.089 308.673 747.916 307.02C748.825 305.284 749.28 303.383 749.28 301.316V297.596ZM748.908 325V316.94C746.676 319.585 743.824 321.817 740.352 323.636C736.88 325.455 732.664 326.364 727.704 326.364C724.562 326.364 721.586 325.909 718.776 325C715.965 324.173 713.485 322.933 711.336 321.28C709.269 319.544 707.574 317.436 706.252 314.956C705.012 312.393 704.392 309.459 704.392 306.152V305.904C704.392 302.267 705.053 299.125 706.376 296.48C707.698 293.752 709.517 291.52 711.832 289.784C714.229 287.965 717.04 286.643 720.264 285.816C723.57 284.907 727.125 284.452 730.928 284.452C734.896 284.452 738.244 284.7 740.972 285.196C743.782 285.692 746.469 286.353 749.032 287.18V285.94C749.032 281.393 747.626 277.921 744.816 275.524C742.088 273.127 738.12 271.928 732.912 271.928C729.192 271.928 725.885 272.3 722.992 273.044C720.098 273.788 717.164 274.78 714.188 276.02L710.096 263.992C713.733 262.339 717.453 261.016 721.256 260.024C725.058 259.032 729.646 258.536 735.02 258.536C744.774 258.536 752.008 260.975 756.72 265.852C761.432 270.647 763.788 277.425 763.788 286.188V325H748.908ZM772.953 259.528H789.073L806.681 307.64L824.413 259.528H840.161L813.377 325.496H799.861L772.953 259.528ZM890.843 297.596C888.942 296.852 886.668 296.232 884.023 295.736C881.46 295.24 878.732 294.992 875.839 294.992C871.127 294.992 867.448 295.901 864.803 297.72C862.158 299.539 860.835 302.019 860.835 305.16V305.408C860.835 308.549 862.034 310.947 864.431 312.6C866.911 314.253 869.928 315.08 873.483 315.08C875.963 315.08 878.236 314.749 880.303 314.088C882.452 313.427 884.312 312.517 885.883 311.36C887.454 310.12 888.652 308.673 889.479 307.02C890.388 305.284 890.843 303.383 890.843 301.316V297.596ZM890.471 325V316.94C888.239 319.585 885.387 321.817 881.915 323.636C878.443 325.455 874.227 326.364 869.267 326.364C866.126 326.364 863.15 325.909 860.339 325C857.528 324.173 855.048 322.933 852.899 321.28C850.832 319.544 849.138 317.436 847.815 314.956C846.575 312.393 845.955 309.459 845.955 306.152V305.904C845.955 302.267 846.616 299.125 847.939 296.48C849.262 293.752 851.08 291.52 853.395 289.784C855.792 287.965 858.603 286.643 861.827 285.816C865.134 284.907 868.688 284.452 872.491 284.452C876.459 284.452 879.807 284.7 882.535 285.196C885.346 285.692 888.032 286.353 890.595 287.18V285.94C890.595 281.393 889.19 277.921 886.379 275.524C883.651 273.127 879.683 271.928 874.475 271.928C870.755 271.928 867.448 272.3 864.555 273.044C861.662 273.788 858.727 274.78 855.751 276.02L851.659 263.992C855.296 262.339 859.016 261.016 862.819 260.024C866.622 259.032 871.21 258.536 876.583 258.536C886.338 258.536 893.571 260.975 898.283 265.852C902.995 270.647 905.351 277.425 905.351 286.188V325H890.471ZM920.716 259.528H935.72V269.696C936.795 268.125 937.952 266.679 939.192 265.356C940.515 263.951 942.003 262.711 943.656 261.636C945.392 260.561 947.252 259.735 949.236 259.156C951.303 258.495 953.618 258.164 956.18 258.164C963.62 258.164 969.366 260.437 973.416 264.984C977.467 269.531 979.492 275.648 979.492 283.336V325H964.488V287.8C964.488 282.675 963.248 278.748 960.768 276.02C958.371 273.209 954.94 271.804 950.476 271.804C946.095 271.804 942.54 273.251 939.812 276.144C937.084 278.955 935.72 282.923 935.72 288.048V325H920.716V259.528Z" fill="white"/>
<defs>
<clipPath id="clip0_202_2">
<rect width="331" height="230" fill="white" transform="translate(0 108)"/>
</clipPath>
</defs>
</svg>
